<svg width="24" height="24" viewBox="0 0 24 24" fill="none" xmlns="http://www.w3.org/2000/svg">
<path fill-rule="evenodd" clip-rule="evenodd" d="M16.9781 18.4003C15.6158 19.4592 13.9041 20.0898 12.0449 20.0898C7.60178 20.0898 4 16.488 4 12.0449C4 7.60184 7.60178 4 12.0449 4C16.4881 4 20.0898 7.60184 20.0898 12.0449C20.0898 13.904 19.4592 15.6158 18.4002 16.9781L21.7054 20.2833C22.0981 20.676 22.0981 21.3127 21.7054 21.7055C21.3127 22.0982 20.676 22.0982 20.2833 21.7055L16.9781 18.4003ZM18.0786 12.0449C18.0786 15.3772 15.3772 18.0786 12.0449 18.0786C8.71259 18.0786 6.01123 15.3772 6.01123 12.0449C6.01123 8.71261 8.71259 6.01123 12.0449 6.01123C15.3772 6.01123 18.0786 8.71261 18.0786 12.0449Z" fill="#0D214B"/>
</svg>
