<svg width="64" height="64" viewBox="0 0 64 64" fill="none" xmlns="http://www.w3.org/2000/svg">
<path d="M32 63.9633C49.4254 64.2195 63.7437 49.903 64 31.9994C63.7117 14.0637 49.3934 -0.252838 32 0.00338626C14.5746 -0.252838 0.256256 14.0637 0 31.9994C0.256256 49.903 14.5746 64.2195 32 63.9633Z" fill="#FFC800"/>
<path d="M36.0364 2.37354C38.2466 6.18488 32.9293 13.3912 24.1525 18.4516C15.3757 23.512 6.50286 24.5369 4.29265 20.7256C4.19656 20.5334 4.10045 20.3412 4.03639 20.1491C3.61998 17.811 4.26062 15.441 5.79816 13.6474C5.97675 13.3795 6.1709 13.1272 6.36977 12.8688C6.45623 12.7565 6.54364 12.6429 6.63099 12.5264C9.19355 9.19551 12.3968 6.40907 16.0164 4.32725C19.636 2.18138 23.64 0.8362 27.7721 0.291724L27.9416 0.26901C28.3589 0.212939 28.7542 0.159818 29.1495 0.131584C31.4558 -0.28478 33.8262 0.323752 35.652 1.8611C35.6853 1.90266 35.7207 1.94422 35.7566 1.98634C35.859 2.10651 35.9652 2.23126 36.0364 2.37354Z" fill="black"/>
<path d="M45.7416 55.8283C34.8827 62.1058 23.0949 63.2268 15.5674 59.4795C25.5614 65.4367 37.8937 65.5007 47.9518 59.7037C57.9137 54.0668 64.0639 43.2413 63.9358 31.519C63.4873 39.9104 56.6004 49.5508 45.7416 55.8283Z" fill="black"/>
<path d="M32.32 32.5439C45.7415 24.7931 53.4932 13.1349 49.6494 6.47307C49.0087 5.38412 48.1118 4.4553 47.0227 3.78271C50.9947 5.86453 54.4862 8.81111 57.273 12.3982C57.7535 13.0068 58.2019 13.6473 58.6504 14.2879C59.8035 16.3057 60.3481 18.6117 60.2199 20.9497C59.9316 29.4692 52.3721 39.8142 40.4882 46.6682C28.5723 53.5542 15.8556 54.9314 8.32804 50.8959C6.27799 49.839 4.54826 48.2056 3.33104 46.1878L3.29901 46.0917C2.97869 45.4511 2.6904 44.8106 2.43414 44.17C0.672379 39.9423 -0.128421 35.3944 0.0317388 30.8143C0.0958028 32.1275 0.448155 33.3766 1.0888 34.4976C4.90061 41.1594 18.8986 40.2946 32.32 32.5439Z" fill="black"/>
<path d="M32 63.9633C49.4254 64.2195 63.7437 49.903 64 31.9994C63.7117 14.0637 49.3934 -0.252838 32 0.00338626C14.5746 -0.252838 0.256256 14.0637 0 31.9994C0.256256 49.903 14.5746 64.2195 32 63.9633Z" fill="url(#paint0_radial_4009_4734)"/>
<defs>
<radialGradient id="paint0_radial_4009_4734" cx="0" cy="0" r="1" gradientUnits="userSpaceOnUse" gradientTransform="translate(31.9934 31.9947) scale(31.98 31.9866)">
<stop offset="0.5" stop-color="white" stop-opacity="0"/>
<stop offset="1" stop-color="white" stop-opacity="0.35"/>
</radialGradient>
</defs>
</svg>
