<svg width="16" height="16" viewBox="0 0 16 16" fill="none" xmlns="http://www.w3.org/2000/svg">
<path d="M2.34383 0.929614C1.9533 0.539084 1.32014 0.53909 0.929614 0.929614C0.53909 1.32014 0.539084 1.9533 0.929614 2.34383L6.58655 8.00076L0.929765 13.6576C0.539235 14.0481 0.539241 14.6812 0.929765 15.0718C1.32029 15.4623 1.95345 15.4623 2.34398 15.0718L8.00076 9.41498L13.6575 15.0717C14.0481 15.4623 14.6812 15.4623 15.0717 15.0717C15.4623 14.6812 15.4623 14.0481 15.0717 13.6575L9.41498 8.00076L15.0719 2.34384C15.4624 1.95331 15.4624 1.32015 15.0719 0.92963C14.6814 0.539106 14.0482 0.5391 13.6577 0.92963L8.00076 6.58655L2.34383 0.929614Z" fill="white"/>
</svg>
