<svg width="1200" height="868" viewBox="0 0 1200 868" fill="none" xmlns="http://www.w3.org/2000/svg">
<path d="M1200 0H0V868H863.564C906.776 868 928.382 868 948.756 862.997C963.985 859.257 978.638 853.468 992.313 845.789C1010.61 835.515 1026.39 820.746 1057.94 791.207L1109.85 742.62C1144.43 710.249 1161.72 694.064 1173.8 674.646C1182.82 660.14 1189.66 644.38 1194.08 627.876C1200 605.785 1200 582.093 1200 534.709V0Z" fill="#5171E0"/>
<path d="M33.1307 169V38.0909H87.4205C102.193 38.0909 113.898 41.2443 122.534 47.5511C131.17 53.8011 135.489 62.2955 135.489 73.0341C135.489 80.7045 133.045 86.7841 128.159 91.2727C123.273 95.7614 116.795 98.7727 108.727 100.307C114.58 100.989 119.949 102.75 124.835 105.591C129.722 108.375 133.642 112.125 136.597 116.841C139.608 121.557 141.114 127.182 141.114 133.716C141.114 140.648 139.324 146.784 135.744 152.125C132.165 157.409 126.966 161.557 120.148 164.568C113.386 167.523 105.233 169 95.6875 169H33.1307ZM57.0795 147.693H95.6875C101.994 147.693 106.938 146.187 110.517 143.176C114.097 140.165 115.886 136.074 115.886 130.903C115.886 124.824 114.097 120.051 110.517 116.585C106.938 113.062 101.994 111.301 95.6875 111.301H57.0795V147.693ZM57.0795 92.6364H87.6761C92.4489 92.6364 96.5398 91.9545 99.9489 90.5909C103.415 89.2273 106.057 87.2955 107.875 84.7955C109.75 82.2386 110.688 79.2273 110.688 75.7614C110.688 70.7045 108.614 66.7557 104.466 63.9148C100.318 61.0739 94.6364 59.6534 87.4205 59.6534H57.0795V92.6364ZM224.21 171.642C211.54 171.642 200.631 168.773 191.483 163.034C182.392 157.239 175.403 149.256 170.517 139.085C165.631 128.915 163.188 117.267 163.188 104.142C163.188 90.8466 165.688 79.1136 170.688 68.9432C175.688 58.7159 182.733 50.733 191.824 44.9943C200.915 39.2557 211.625 36.3864 223.955 36.3864C233.898 36.3864 242.761 38.233 250.545 41.9261C258.33 45.5625 264.608 50.6761 269.381 57.267C274.21 63.858 277.08 71.5568 277.989 80.3636H253.188C251.824 74.2273 248.699 68.9432 243.812 64.5114C238.983 60.0795 232.506 57.8636 224.381 57.8636C217.278 57.8636 211.057 59.7386 205.716 63.4886C200.432 67.1818 196.313 72.4659 193.358 79.3409C190.403 86.1591 188.926 94.2273 188.926 103.545C188.926 113.091 190.375 121.33 193.273 128.261C196.17 135.193 200.261 140.562 205.545 144.369C210.886 148.176 217.165 150.08 224.381 150.08C229.21 150.08 233.585 149.199 237.506 147.438C241.483 145.619 244.807 143.034 247.477 139.682C250.205 136.33 252.108 132.295 253.188 127.58H277.989C277.08 136.045 274.324 143.602 269.722 150.25C265.119 156.898 258.955 162.125 251.227 165.932C243.557 169.739 234.551 171.642 224.21 171.642ZM361.661 171.642C348.763 171.642 337.655 168.886 328.337 163.375C319.075 157.807 311.916 149.994 306.859 139.938C301.859 129.824 299.359 117.977 299.359 104.398C299.359 90.9886 301.859 79.1705 306.859 68.9432C311.916 58.7159 318.962 50.733 327.996 44.9943C337.087 39.2557 347.712 36.3864 359.871 36.3864C367.257 36.3864 374.416 37.608 381.348 40.0511C388.28 42.4943 394.501 46.3295 400.013 51.5568C405.524 56.7841 409.871 63.5739 413.053 71.9261C416.234 80.2216 417.825 90.3068 417.825 102.182V111.216H313.763V92.125H392.854C392.854 85.4205 391.49 79.483 388.763 74.3125C386.036 69.0852 382.2 64.9659 377.257 61.9545C372.371 58.9432 366.632 57.4375 360.041 57.4375C352.882 57.4375 346.632 59.1989 341.291 62.7216C336.007 66.1875 331.916 70.733 329.018 76.358C326.178 81.9261 324.757 87.9773 324.757 94.5114V109.426C324.757 118.176 326.291 125.619 329.359 131.756C332.484 137.892 336.831 142.58 342.399 145.818C347.967 149 354.473 150.591 361.916 150.591C366.746 150.591 371.149 149.909 375.126 148.545C379.104 147.125 382.541 145.023 385.439 142.239C388.337 139.455 390.553 136.017 392.087 131.926L416.206 136.273C414.274 143.375 410.808 149.597 405.808 154.938C400.865 160.222 394.643 164.341 387.143 167.295C379.7 170.193 371.206 171.642 361.661 171.642ZM539.594 169V190.648H428.713V169H539.594ZM25.8011 260.08V238.091H136.256V260.08H93.5568V369H68.6705V260.08H25.8011ZM195.212 371.898C186.916 371.898 179.416 370.364 172.712 367.295C166.007 364.17 160.695 359.653 156.774 353.744C152.911 347.835 150.979 340.591 150.979 332.011C150.979 324.625 152.399 318.545 155.24 313.773C158.081 309 161.916 305.222 166.746 302.438C171.575 299.653 176.973 297.551 182.939 296.131C188.905 294.71 194.984 293.631 201.178 292.892C209.018 291.983 215.382 291.244 220.268 290.676C225.155 290.051 228.706 289.057 230.922 287.693C233.138 286.33 234.246 284.114 234.246 281.045V280.449C234.246 273.006 232.143 267.239 227.939 263.148C223.791 259.057 217.598 257.011 209.359 257.011C200.78 257.011 194.018 258.915 189.075 262.722C184.189 266.472 180.808 270.648 178.933 275.25L154.984 269.795C157.825 261.841 161.973 255.42 167.428 250.534C172.939 245.591 179.274 242.011 186.433 239.795C193.592 237.523 201.121 236.386 209.018 236.386C214.246 236.386 219.786 237.011 225.638 238.261C231.547 239.455 237.058 241.67 242.172 244.909C247.342 248.148 251.575 252.778 254.871 258.801C258.166 264.767 259.814 272.523 259.814 282.068V369H234.928V351.102H233.905C232.257 354.398 229.786 357.636 226.49 360.818C223.195 364 218.962 366.642 213.791 368.744C208.621 370.847 202.428 371.898 195.212 371.898ZM200.751 351.443C207.797 351.443 213.82 350.051 218.82 347.267C223.876 344.483 227.712 340.847 230.325 336.358C232.996 331.812 234.331 326.955 234.331 321.784V304.909C233.422 305.818 231.661 306.67 229.047 307.466C226.49 308.205 223.564 308.858 220.268 309.426C216.973 309.937 213.763 310.42 210.638 310.875C207.513 311.273 204.899 311.614 202.797 311.898C197.854 312.523 193.337 313.574 189.246 315.051C185.212 316.528 181.973 318.659 179.53 321.443C177.143 324.17 175.95 327.807 175.95 332.352C175.95 338.659 178.28 343.432 182.939 346.67C187.598 349.852 193.536 351.443 200.751 351.443ZM293.756 418.091V238.091H318.642V259.312H320.773C322.25 256.585 324.381 253.432 327.165 249.852C329.949 246.273 333.813 243.148 338.756 240.477C343.699 237.75 350.233 236.386 358.358 236.386C368.926 236.386 378.358 239.057 386.653 244.398C394.949 249.739 401.455 257.437 406.17 267.494C410.943 277.551 413.33 289.653 413.33 303.801C413.33 317.949 410.972 330.08 406.256 340.193C401.54 350.25 395.063 358.006 386.824 363.46C378.585 368.858 369.182 371.557 358.614 371.557C350.659 371.557 344.153 370.222 339.097 367.551C334.097 364.881 330.176 361.756 327.335 358.176C324.494 354.597 322.307 351.415 320.773 348.631H319.239V418.091H293.756ZM318.727 303.545C318.727 312.75 320.063 320.818 322.733 327.75C325.403 334.682 329.267 340.108 334.324 344.028C339.381 347.892 345.574 349.824 352.903 349.824C360.517 349.824 366.881 347.807 371.994 343.773C377.108 339.682 380.972 334.142 383.585 327.153C386.256 320.165 387.591 312.295 387.591 303.545C387.591 294.909 386.284 287.153 383.67 280.278C381.114 273.403 377.25 267.977 372.08 264C366.966 260.023 360.574 258.034 352.903 258.034C345.517 258.034 339.267 259.937 334.153 263.744C329.097 267.551 325.261 272.864 322.648 279.682C320.034 286.5 318.727 294.455 318.727 303.545ZM466.852 333.29L524.551 238.091H551.994V369H527.023V273.716L469.58 369H441.881V238.091H466.852V333.29ZM642.591 413.574V194.455H668.074V413.574H642.591ZM642.591 371.642C633.33 371.642 624.892 370.051 617.278 366.869C609.665 363.631 603.102 359.028 597.591 353.062C592.08 347.097 587.818 339.966 584.807 331.67C581.852 323.375 580.375 314.199 580.375 304.142C580.375 293.972 581.852 284.739 584.807 276.443C587.818 268.148 592.08 261.017 597.591 255.051C603.102 249.085 609.665 244.483 617.278 241.244C624.892 238.006 633.33 236.386 642.591 236.386H648.898V371.642H642.591ZM642.591 350.165H646.17V257.864H642.591C636.455 257.864 631.114 259.114 626.568 261.614C622.023 264.057 618.244 267.437 615.233 271.756C612.222 276.017 609.949 280.932 608.415 286.5C606.938 292.068 606.199 297.949 606.199 304.142C606.199 312.437 607.534 320.08 610.205 327.068C612.875 334 616.909 339.597 622.307 343.858C627.705 348.062 634.466 350.165 642.591 350.165ZM668.074 371.642H661.682V236.386H668.074C677.335 236.386 685.773 238.006 693.386 241.244C701 244.483 707.534 249.085 712.989 255.051C718.5 261.017 722.733 268.148 725.688 276.443C728.699 284.739 730.205 293.972 730.205 304.142C730.205 314.199 728.699 323.375 725.688 331.67C722.733 339.966 718.5 347.097 712.989 353.062C707.534 359.028 701 363.631 693.386 366.869C685.773 370.051 677.335 371.642 668.074 371.642ZM668.074 350.165C674.21 350.165 679.551 348.972 684.097 346.585C688.642 344.142 692.42 340.79 695.432 336.528C698.443 332.21 700.688 327.295 702.165 321.784C703.642 316.216 704.381 310.335 704.381 304.142C704.381 295.903 703.045 288.29 700.375 281.301C697.761 274.256 693.756 268.602 688.358 264.341C682.96 260.023 676.199 257.864 668.074 257.864H664.409V350.165H668.074ZM777.697 283.091H815.709C831.732 283.091 844.061 287.068 852.697 295.023C861.334 302.977 865.652 313.233 865.652 325.79C865.652 333.972 863.72 341.33 859.857 347.864C855.993 354.398 850.339 359.568 842.896 363.375C835.453 367.125 826.391 369 815.709 369H758.521V238.091H783.493V347.011H815.709C823.038 347.011 829.061 345.108 833.777 341.301C838.493 337.438 840.851 332.523 840.851 326.557C840.851 320.25 838.493 315.108 833.777 311.131C829.061 307.097 823.038 305.08 815.709 305.08H777.697V283.091ZM884.232 369V238.091H909.714V369H884.232Z" fill="white"/>
<path d="M68.9545 713.636V830H54.8636V728.409H54.1818L25.7727 747.273V732.955L54.8636 713.636H68.9545ZM105.545 830.909C102.742 830.909 100.337 829.905 98.3295 827.898C96.322 825.89 95.3182 823.485 95.3182 820.682C95.3182 817.879 96.322 815.473 98.3295 813.466C100.337 811.458 102.742 810.455 105.545 810.455C108.348 810.455 110.754 811.458 112.761 813.466C114.769 815.473 115.773 817.879 115.773 820.682C115.773 822.538 115.299 824.242 114.352 825.795C113.443 827.348 112.212 828.598 110.659 829.545C109.144 830.455 107.439 830.909 105.545 830.909ZM173.5 831.591C164.939 831.591 157.648 829.261 151.625 824.602C145.602 819.905 141 813.106 137.818 804.205C134.636 795.265 133.045 784.47 133.045 771.818C133.045 759.242 134.636 748.504 137.818 739.602C141.038 730.663 145.659 723.845 151.682 719.148C157.742 714.413 165.015 712.045 173.5 712.045C181.985 712.045 189.239 714.413 195.261 719.148C201.322 723.845 205.943 730.663 209.125 739.602C212.345 748.504 213.955 759.242 213.955 771.818C213.955 784.47 212.364 795.265 209.182 804.205C206 813.106 201.398 819.905 195.375 824.602C189.352 829.261 182.061 831.591 173.5 831.591ZM173.5 819.091C181.985 819.091 188.576 815 193.273 806.818C197.97 798.636 200.318 786.97 200.318 771.818C200.318 761.742 199.239 753.163 197.08 746.08C194.958 738.996 191.89 733.598 187.875 729.886C183.898 726.174 179.106 724.318 173.5 724.318C165.091 724.318 158.519 728.466 153.784 736.761C149.049 745.019 146.682 756.705 146.682 771.818C146.682 781.894 147.742 790.455 149.864 797.5C151.985 804.545 155.034 809.905 159.011 813.58C163.027 817.254 167.856 819.091 173.5 819.091Z" fill="white"/>
</svg>
