<svg width="64" height="64" viewBox="0 0 64 64" fill="none" xmlns="http://www.w3.org/2000/svg">
<path d="M0 26.24C0 16.6746 0 11.8919 1.97909 8.29194C3.44179 5.63131 5.63131 3.44179 8.29194 1.97909C11.8919 0 16.6746 0 26.24 0H37.76C47.3254 0 52.1081 0 55.7081 1.97909C58.3687 3.44179 60.5582 5.63131 62.0209 8.29194C64 11.8919 64 16.6746 64 26.24V37.76C64 47.3254 64 52.1081 62.0209 55.7081C60.5582 58.3687 58.3687 60.5582 55.7081 62.0209C52.1081 64 47.3254 64 37.76 64H26.24C16.6746 64 11.8919 64 8.29194 62.0209C5.63131 60.5582 3.44179 58.3687 1.97909 55.7081C0 52.1081 0 47.3254 0 37.76V26.24Z" fill="#FF6400"/>
<path d="M20.7213 20.4697C18.3102 20.4697 16.3945 22.3594 16.3945 24.6655V26.5872L17.7487 27.1317L19.7304 27.9324C20.2589 28.1565 20.8204 28.2527 21.3818 28.2527C23.1324 28.2527 24.7177 27.2278 25.3782 25.6584L26.3362 23.3843L27.5912 20.4697H20.7213ZM20.7213 22.5836H24.3545L23.3965 24.8576C23.0663 25.6584 22.2406 26.1708 21.3818 26.1708C21.1176 26.1708 20.8204 26.1068 20.5561 26.0107L18.5744 25.21V24.6975C18.5744 23.5445 19.5322 22.5836 20.7543 22.5836H20.7213Z" fill="#226F54"/>
<path d="M43.3778 20.4697H36.5078L37.7629 23.3843L38.7208 25.6584C39.3814 27.2278 40.9666 28.2527 42.7172 28.2527C43.2787 28.2527 43.8402 28.1565 44.3687 27.9324L46.3504 27.1317L47.7045 26.5872V24.6655C47.7045 22.3274 45.7558 20.4697 43.3778 20.4697ZM43.3778 22.5836C44.5668 22.5836 45.5576 23.5124 45.5576 24.6975V25.21L43.5759 26.0107C43.3117 26.1068 43.0144 26.1708 42.7502 26.1708C41.8914 26.1708 41.0988 25.6904 40.7355 24.8576L39.7777 22.5836H43.4107H43.3778Z" fill="#226F54"/>
<path d="M53.6833 30.751C53.3529 31.5516 52.5273 32.0641 51.6685 32.0641C51.4043 32.0641 51.107 32 50.8428 31.9039L44.072 29.1815L50.7767 44.8755C51.2392 45.9325 50.7767 47.1495 49.6867 47.63C49.3895 47.7581 49.0923 47.8222 48.795 47.8222C47.9363 47.8222 47.1436 47.3416 46.7802 46.5089L42.5527 36.6441C42.2884 36.0356 41.7599 35.7794 41.2315 35.7794C40.5049 35.7794 39.7782 36.2918 39.7782 37.1886V45.7082C39.7782 46.8613 38.7874 47.8222 37.5984 47.8222H35.4185V30.0783C35.4185 28.2848 33.8992 26.8114 32.0495 26.8114C31.7853 26.8114 31.5542 26.8114 31.3229 26.8755C32.2147 24.7296 34.3285 23.1602 36.8056 22.968L36.6405 22.5837V22.5196L35.5176 19.9573C35.3524 19.605 35.2863 19.2206 35.2863 18.8363C35.2863 17.2989 36.5744 16.0178 38.1928 16.0178C38.2919 16.0178 38.391 16.0178 38.5232 16.0178C39.8443 16.1459 40.9342 17.2029 41.0664 18.484C41.1323 18.9644 41.0664 19.4449 40.8682 19.8612L39.613 22.7758L52.4612 27.9325C53.5511 28.3809 54.0796 29.5979 53.6502 30.6869L53.6833 30.751ZM28.6806 47.8222H26.5007C25.3117 47.8222 24.3209 46.8613 24.3209 45.7082V37.1886C24.3209 36.2918 23.5942 35.7794 22.8675 35.7794C22.3392 35.7794 21.8107 36.0356 21.5464 36.6441L17.3188 46.5089C16.9885 47.3097 16.1628 47.8222 15.304 47.8222C15.0398 47.8222 14.7426 47.7581 14.4783 47.662C13.3884 47.2136 12.8599 45.9965 13.2893 44.9076L20.0271 29.1495L13.2563 31.8719C12.992 31.968 12.6948 32.0321 12.4306 32.0321C11.5718 32.0321 10.7791 31.5516 10.4158 30.7189C9.95341 29.662 10.4819 28.4128 11.6048 27.9644L24.4529 22.8078L23.1979 19.8933C23.0657 19.573 22.9997 19.2206 22.9997 18.8363C22.9997 17.2989 24.2878 16.0178 25.9063 16.0178C25.9722 16.0178 26.0383 16.0178 26.1044 16.0178C27.5246 16.1139 28.6806 17.2029 28.7797 18.5801C28.8128 19.0925 28.7136 19.573 28.5154 19.9893L27.4256 22.5516H32.0495C30.0017 24.089 28.6806 26.4911 28.6806 29.2136V47.8222ZM53.3199 26.0427L42.4535 21.6868L42.8499 20.726C43.1801 19.9573 43.2792 19.1246 43.1801 18.3239C43.0481 17.2349 42.5196 16.1779 41.7269 15.4092C40.9012 14.6085 39.8443 14.1281 38.6882 14C38.4901 14 38.325 14 38.1269 14C35.3194 14 33.0734 16.21 33.0734 18.9004C33.0734 19.4769 33.1725 20.0214 33.3707 20.5338H30.6293C30.8605 19.8612 30.9595 19.1566 30.8936 18.484C30.7945 17.331 30.266 16.242 29.3743 15.4092C28.5154 14.5765 27.3595 14.0961 26.1704 14C26.0713 14 25.9392 14 25.8402 14C24.387 14 23.0327 14.5765 22.0419 15.6335C21.2822 16.4662 20.8198 17.5231 20.7538 18.6441C20.7207 19.3808 20.8529 20.0854 21.1171 20.758L21.5134 21.7189L10.6801 26.0748C8.46713 26.9715 7.41022 29.4377 8.33502 31.5837C8.99559 33.1531 10.581 34.178 12.3645 34.178C12.926 34.178 13.4875 34.0819 14.0159 33.8577L15.9646 33.089L11.2415 44.1388C10.8122 45.1637 10.8122 46.3168 11.2415 47.3738C11.6709 48.4306 12.5296 49.2314 13.5866 49.6478C14.115 49.8719 14.6765 49.968 15.238 49.968C16.9885 49.968 18.5739 48.9431 19.2675 47.3738L22.0749 40.7758V45.7723C22.0749 48.1104 24.0236 49.968 26.4017 49.968H29.3082C30.1008 49.968 30.7614 49.3274 30.7614 48.5588V30.1104C30.7614 29.4698 31.2899 28.9254 31.9834 28.9254C32.6771 28.9254 33.2055 29.4377 33.2055 30.1104V48.5588C33.2055 49.3274 33.8661 49.968 34.6588 49.968H37.5654C39.9764 49.968 41.8921 48.0783 41.8921 45.7723V40.7758L44.7325 47.4057C45.3931 48.9751 46.9785 50 48.7621 50C49.3234 50 49.8849 49.9039 50.4134 49.6798C51.4703 49.2634 52.329 48.4306 52.7585 47.4057C53.1879 46.3809 53.1879 45.2278 52.7585 44.1709L48.0354 33.1211L49.9841 33.8897C50.5125 34.1139 51.074 34.2099 51.6355 34.2099C53.386 34.2099 54.9714 33.1851 55.665 31.6157C56.5898 29.4698 55.5328 27.0036 53.3199 26.1068V26.0427Z" fill="#226F54"/>
<path d="M53.6845 30.7505C53.3543 31.5511 52.5285 32.0636 51.6698 32.0636C51.4055 32.0636 51.1083 31.9995 50.8441 31.9035L44.0732 29.181L50.778 44.875C51.2404 45.932 50.778 47.149 49.6881 47.6296C49.3909 47.7576 49.0935 47.8217 48.7962 47.8217C47.9375 47.8217 47.1449 47.3412 46.7816 46.5085L42.5539 36.6437C42.2896 36.0352 41.7611 35.779 41.2328 35.779C40.5061 35.779 39.7794 36.2914 39.7794 37.1882V45.7077C39.7794 46.8608 38.7886 47.8217 37.5996 47.8217H35.4197V30.0778C35.4197 28.2843 33.9004 26.8109 32.0507 26.8109C31.7865 26.8109 31.5554 26.8109 31.3242 26.875C32.2159 24.7291 34.3297 23.1597 36.8069 22.9675L36.6418 22.5832V22.5191L35.5188 19.9568C35.3536 19.6045 35.2876 19.2202 35.2876 18.8358C35.2876 17.2985 36.5757 16.0173 38.1942 16.0173C38.2932 16.0173 38.3923 16.0173 38.5244 16.0173C39.8455 16.1454 40.9355 17.2024 41.0676 18.4835C41.1337 18.9639 41.0676 19.4444 40.8694 19.8608L39.6144 22.7753L52.4624 27.932C53.5524 28.3804 54.0808 29.5974 53.6515 30.6864L53.6845 30.7505Z" fill="#BCED09"/>
<path d="M26.5007 47.8222H28.6806L28.647 47.7576V29.2131C28.647 26.4907 29.9682 24.0885 32.016 22.5511H27.392L28.482 19.9889C28.6801 19.5725 28.7792 19.0921 28.7461 18.5796C28.647 17.2024 27.4911 16.1134 26.0709 16.0173H25.8727C24.2543 16.0173 22.9662 17.2985 22.9662 18.8358C22.9662 19.2202 23.0658 19.573 23.1979 19.8933L24.4529 22.8078L11.6048 27.9644C10.4819 28.4128 9.95341 29.662 10.4158 30.7189C10.7791 31.5516 11.5718 32.0321 12.4306 32.0321C12.6948 32.0321 12.992 31.968 13.2563 31.8719L20.0271 29.1495L13.2893 44.9076C12.8599 45.9965 13.3884 47.2136 14.4783 47.662C14.7426 47.7581 15.0398 47.8222 15.304 47.8222C16.1628 47.8222 16.9885 47.3097 17.3188 46.5089L21.5464 36.6441C21.8107 36.0356 22.3392 35.7794 22.8675 35.7794C23.5942 35.7794 24.3209 36.2918 24.3209 37.1886V45.7082C24.3209 46.8613 25.3117 47.8222 26.5007 47.8222Z" fill="white"/>
<path d="M39.7453 22.5833L40.7031 24.8573L40.7355 24.8576C41.1979 25.9466 42.4531 26.4591 43.5759 26.0107L45.5576 25.21V24.6975C45.5576 23.5124 44.5668 22.5836 43.3778 22.5836L39.7453 22.5833Z" fill="white"/>
<path d="M39.7453 22.5833L40.7031 24.8573C41.0004 25.5619 41.6283 26.0103 42.3549 26.1384L43.2467 28.2523C43.0815 28.2523 42.8833 28.2843 42.7183 28.2843C40.9677 28.2843 39.3823 27.2594 38.7218 25.69L37.7639 23.416L37.4336 22.6153H39.7786L39.7453 22.5833Z" fill="#BCED09"/>
<path d="M23.3965 24.8576L24.3545 22.5836H20.7213C19.5322 22.5836 18.541 23.5121 18.541 24.6971V25.2096L20.5227 26.0103C21.6457 26.4587 22.9007 25.9463 23.3631 24.8573L23.3965 24.8576Z" fill="#BCED09"/>
<path d="M24.3545 22.5836L23.3965 24.8576C23.0993 25.5623 22.4719 26.0103 21.7453 26.1384L20.8535 28.2523C21.0187 28.2523 21.2168 28.2843 21.382 28.2843C23.1324 28.2843 24.7178 27.2594 25.3784 25.69L26.3362 23.416L26.6665 22.6153H24.3215L24.3545 22.5836Z" fill="white"/>
</svg>
