<svg width="238" height="120" viewBox="0 0 238 120" fill="none" xmlns="http://www.w3.org/2000/svg">
<path d="M166 0H0V120H119.46C125.437 120 128.426 120 131.245 119.308C133.351 118.791 135.378 117.991 137.27 116.929C139.801 115.509 141.983 113.467 146.349 109.383L153.529 102.666C158.313 98.1911 160.705 95.9535 162.376 93.269C163.624 91.2635 164.569 89.0848 165.181 86.8032C166 83.7491 166 80.4737 166 73.9229V0Z" fill="#5171E0"/>
<path d="M132.523 120H191.459C197.437 120 200.425 120 203.244 119.308C205.351 118.791 207.378 117.991 209.269 116.929C211.8 115.509 213.983 113.467 218.348 109.383L225.528 102.666C230.312 98.1911 232.704 95.9535 234.375 93.269C235.623 91.2635 236.568 89.0848 237.18 86.8032C237.999 83.7491 237.999 80.4737 237.999 73.9229V0H166.999V74.0996C166.999 80.4827 166.999 83.8804 166.146 87.0622C165.509 89.4389 164.524 91.7084 163.224 93.7974C161.483 96.5941 159.002 98.9152 154.341 103.276L146.914 110.223C142.66 114.203 140.395 116.322 137.759 117.801C136.102 118.731 134.345 119.469 132.523 120Z" fill="#5171E0"/>
<mask id="mask0_3879_12697" style="mask-type:alpha" maskUnits="userSpaceOnUse" x="132" y="0" width="106" height="120">
<path d="M132.523 120H191.459C197.437 120 200.425 120 203.244 119.308C205.351 118.791 207.378 117.991 209.269 116.929C211.8 115.509 213.983 113.467 218.348 109.383L225.528 102.666C230.312 98.1911 232.704 95.9535 234.375 93.269C235.623 91.2635 236.568 89.0848 237.18 86.8032C237.999 83.7491 237.999 80.4737 237.999 73.9229V0H166.999V74.0996C166.999 80.4827 166.999 83.8804 166.146 87.0622C165.509 89.4389 164.524 91.7084 163.224 93.7974C161.483 96.5941 159.002 98.9152 154.341 103.276L146.914 110.223C142.66 114.203 140.395 116.322 137.759 117.801C136.102 118.731 134.345 119.469 132.523 120Z" fill="#5171E0"/>
</mask>
<g mask="url(#mask0_3879_12697)">
<g opacity="0.8">
<g filter="url(#filter0_f_3879_12697)">
<path d="M359.137 95.9818C319.642 96.0311 280.15 105.144 243.923 123.3C205.304 142.656 163.256 152.543 121.137 152.93V131.877C160.015 131.491 198.826 122.351 234.478 104.482C273.672 84.8388 316.401 74.9791 359.137 74.9297V95.9818Z" fill="#68D4D4"/>
</g>
<g filter="url(#filter1_f_3879_12697)">
<path d="M362.68 131.877C323.185 131.828 283.693 122.715 247.466 104.559C208.847 85.2035 166.799 75.3159 124.68 74.9297V95.9827C163.558 96.3681 202.369 105.508 238.021 123.377C277.215 143.02 319.944 152.88 362.68 152.93V131.877Z" fill="#68D4D4"/>
</g>
<g filter="url(#filter2_f_3879_12697)">
<path d="M264.328 131.877C224.833 131.828 185.341 122.715 149.115 104.559C110.495 85.2035 68.4473 75.3159 26.3281 74.9297V95.9827C65.2062 96.3681 104.017 105.508 139.669 123.377C178.864 143.02 221.593 152.88 264.328 152.93V131.877Z" fill="#68D4D4"/>
</g>
<g filter="url(#filter3_f_3879_12697)">
<path d="M133.516 95.9818C94.0208 96.0311 54.5289 105.144 18.3023 123.3C-20.3172 142.656 -62.3652 152.543 -104.484 152.93V131.877C-65.6063 131.491 -26.7952 122.351 8.8569 104.482C48.0512 84.8388 90.7802 74.9791 133.516 74.9297V95.9818Z" fill="#68D4D4"/>
<path d="M371.516 131.877C332.021 131.828 292.529 122.715 256.302 104.559C217.683 85.2035 175.635 75.3159 133.516 74.9297V95.9827C172.394 96.3681 211.205 105.508 246.857 123.377C286.051 143.02 328.78 152.88 371.516 152.93V131.877Z" fill="#68D4D4"/>
</g>
<g filter="url(#filter4_f_3879_12697)">
<path d="M184 122.948C144.505 122.898 105.013 113.786 68.7867 95.6294C30.1672 76.2738 -11.8809 66.3863 -54 66V87.053C-15.1219 87.4384 23.6891 96.5788 59.3413 114.447C98.5356 134.091 141.265 143.95 184 144V122.948Z" fill="#68D4D4"/>
<path d="M422 87.0521C382.505 87.1014 343.013 96.2143 306.787 114.371C268.167 133.726 226.119 143.614 184 144V122.947C222.878 122.562 261.689 113.421 297.341 95.5528C336.536 75.9091 379.265 66.0494 422 66V87.0521Z" fill="#68D4D4"/>
</g>
<g style="mix-blend-mode:soft-light" filter="url(#filter5_f_3879_12697)">
<path d="M213.531 74.9297C186.741 74.9297 159.95 76.9318 133.383 80.936C106.914 84.9254 80.2225 86.9201 53.5312 86.9201V88.9297C80.3216 88.9297 107.112 86.9276 133.68 82.9234C160.149 78.934 186.84 76.9393 213.531 76.9393V74.9297Z" fill="white"/>
<path d="M373.531 88.9297C346.741 88.9297 319.95 86.9276 293.383 82.9234C266.914 78.934 240.222 76.9393 213.531 76.9393V74.9297C240.322 74.9297 267.112 76.9318 293.68 80.936C320.149 84.9254 346.84 86.9201 373.531 86.9201V88.9297Z" fill="white"/>
</g>
<g opacity="0.4" filter="url(#filter6_f_3879_12697)">
<path d="M176.34 100.094C149.549 100.094 122.759 98.0916 96.1914 94.0874C69.7223 90.098 43.0311 88.1033 16.3398 88.1033V86.0938C43.1302 86.0938 69.9206 88.0959 96.4881 92.1001C122.957 96.0895 149.649 98.0842 176.34 98.0842V100.094Z" fill="white"/>
<path d="M336.34 86.0938C309.549 86.0937 282.759 88.0959 256.191 92.1001C229.722 96.0895 203.031 98.0842 176.34 98.0842V100.094C203.13 100.094 229.921 98.0916 256.488 94.0874C282.957 90.098 309.649 88.1033 336.34 88.1033V86.0938Z" fill="white"/>
</g>
</g>
</g>
<path d="M17.7131 33V19.9091H23.142C24.6193 19.9091 25.7898 20.2244 26.6534 20.8551C27.517 21.4801 27.9489 22.3295 27.9489 23.4034C27.9489 24.1705 27.7045 24.7784 27.2159 25.2273C26.7273 25.6761 26.0795 25.9773 25.2727 26.1307C25.858 26.1989 26.3949 26.375 26.8835 26.6591C27.3722 26.9375 27.7642 27.3125 28.0597 27.7841C28.3608 28.2557 28.5114 28.8182 28.5114 29.4716C28.5114 30.1648 28.3324 30.7784 27.9744 31.3125C27.6165 31.8409 27.0966 32.2557 26.4148 32.5568C25.7386 32.8523 24.9233 33 23.9688 33H17.7131ZM20.108 30.8693H23.9688C24.5994 30.8693 25.0938 30.7187 25.4517 30.4176C25.8097 30.1165 25.9886 29.7074 25.9886 29.1903C25.9886 28.5824 25.8097 28.1051 25.4517 27.7585C25.0938 27.4062 24.5994 27.2301 23.9688 27.2301H20.108V30.8693ZM20.108 25.3636H23.1676C23.6449 25.3636 24.054 25.2955 24.3949 25.1591C24.7415 25.0227 25.0057 24.8295 25.1875 24.5795C25.375 24.3239 25.4688 24.0227 25.4688 23.6761C25.4688 23.1705 25.2614 22.7756 24.8466 22.4915C24.4318 22.2074 23.8636 22.0653 23.142 22.0653H20.108V25.3636ZM36.821 33.2642C35.554 33.2642 34.4631 32.9773 33.5483 32.4034C32.6392 31.8239 31.9403 31.0256 31.4517 30.0085C30.9631 28.9915 30.7188 27.8267 30.7188 26.5142C30.7188 25.1847 30.9688 24.0114 31.4688 22.9943C31.9688 21.9716 32.6733 21.1733 33.5824 20.5994C34.4915 20.0256 35.5625 19.7386 36.7955 19.7386C37.7898 19.7386 38.6761 19.9233 39.4545 20.2926C40.233 20.6562 40.8608 21.1676 41.3381 21.8267C41.821 22.4858 42.108 23.2557 42.1989 24.1364H39.7188C39.5824 23.5227 39.2699 22.9943 38.7812 22.5511C38.2983 22.108 37.6506 21.8864 36.8381 21.8864C36.1278 21.8864 35.5057 22.0739 34.9716 22.4489C34.4432 22.8182 34.0313 23.3466 33.7358 24.0341C33.4403 24.7159 33.2926 25.5227 33.2926 26.4545C33.2926 27.4091 33.4375 28.233 33.7273 28.9261C34.017 29.6193 34.4261 30.1562 34.9545 30.5369C35.4886 30.9176 36.1165 31.108 36.8381 31.108C37.321 31.108 37.7585 31.0199 38.1506 30.8438C38.5483 30.6619 38.8807 30.4034 39.1477 30.0682C39.4205 29.733 39.6108 29.3295 39.7188 28.858H42.1989C42.108 29.7045 41.8324 30.4602 41.3722 31.125C40.9119 31.7898 40.2955 32.3125 39.5227 32.6932C38.7557 33.0739 37.8551 33.2642 36.821 33.2642ZM50.5661 33.2642C49.2763 33.2642 48.1655 32.9886 47.2337 32.4375C46.3075 31.8807 45.5916 31.0994 45.0859 30.0938C44.5859 29.0824 44.3359 27.8977 44.3359 26.5398C44.3359 25.1989 44.5859 24.017 45.0859 22.9943C45.5916 21.9716 46.2962 21.1733 47.1996 20.5994C48.1087 20.0256 49.1712 19.7386 50.3871 19.7386C51.1257 19.7386 51.8416 19.8608 52.5348 20.1051C53.228 20.3494 53.8501 20.733 54.4013 21.2557C54.9524 21.7784 55.3871 22.4574 55.7053 23.2926C56.0234 24.1222 56.1825 25.1307 56.1825 26.3182V27.2216H45.7763V25.3125H53.6854C53.6854 24.642 53.549 24.0483 53.2763 23.5312C53.0036 23.0085 52.62 22.5966 52.1257 22.2955C51.6371 21.9943 51.0632 21.8438 50.4041 21.8438C49.6882 21.8438 49.0632 22.0199 48.5291 22.3722C48.0007 22.7187 47.5916 23.1733 47.3018 23.7358C47.0178 24.2926 46.8757 24.8977 46.8757 25.5511V27.0426C46.8757 27.9176 47.0291 28.6619 47.3359 29.2756C47.6484 29.8892 48.0831 30.358 48.6399 30.6818C49.1967 31 49.8473 31.1591 50.5916 31.1591C51.0746 31.1591 51.5149 31.0909 51.9126 30.9545C52.3104 30.8125 52.6541 30.6023 52.9439 30.3239C53.2337 30.0455 53.4553 29.7017 53.6087 29.2926L56.0206 29.7273C55.8274 30.4375 55.4808 31.0597 54.9808 31.5938C54.4865 32.1222 53.8643 32.5341 53.1143 32.8295C52.37 33.1193 51.5206 33.2642 50.5661 33.2642ZM68.3594 33V35.1648H57.2713V33H68.3594ZM16.9801 46.108V43.9091H28.0256V46.108H23.7557V57H21.267V46.108H16.9801ZM33.9212 57.2898C33.0916 57.2898 32.3416 57.1364 31.6712 56.8295C31.0007 56.517 30.4695 56.0653 30.0774 55.4744C29.6911 54.8835 29.4979 54.1591 29.4979 53.3011C29.4979 52.5625 29.6399 51.9545 29.924 51.4773C30.2081 51 30.5916 50.6222 31.0746 50.3438C31.5575 50.0653 32.0973 49.8551 32.6939 49.7131C33.2905 49.571 33.8984 49.4631 34.5178 49.3892C35.3018 49.2983 35.9382 49.2244 36.4268 49.1676C36.9155 49.1051 37.2706 49.0057 37.4922 48.8693C37.7138 48.733 37.8246 48.5114 37.8246 48.2045V48.1449C37.8246 47.4006 37.6143 46.8239 37.1939 46.4148C36.7791 46.0057 36.1598 45.8011 35.3359 45.8011C34.478 45.8011 33.8018 45.9915 33.3075 46.3722C32.8189 46.7472 32.4808 47.1648 32.2933 47.625L29.8984 47.0795C30.1825 46.2841 30.5973 45.642 31.1428 45.1534C31.6939 44.6591 32.3274 44.3011 33.0433 44.0795C33.7592 43.8523 34.5121 43.7386 35.3018 43.7386C35.8246 43.7386 36.3786 43.8011 36.9638 43.9261C37.5547 44.0455 38.1058 44.267 38.6172 44.5909C39.1342 44.9148 39.5575 45.3778 39.8871 45.9801C40.2166 46.5767 40.3814 47.3523 40.3814 48.3068V57H37.8928V55.2102H37.7905C37.6257 55.5398 37.3786 55.8636 37.049 56.1818C36.7195 56.5 36.2962 56.7642 35.7791 56.9744C35.2621 57.1847 34.6428 57.2898 33.9212 57.2898ZM34.4751 55.2443C35.1797 55.2443 35.782 55.1051 36.282 54.8267C36.7876 54.5483 37.1712 54.1847 37.4325 53.7358C37.6996 53.2812 37.8331 52.7955 37.8331 52.2784V50.5909C37.7422 50.6818 37.5661 50.767 37.3047 50.8466C37.049 50.9205 36.7564 50.9858 36.4268 51.0426C36.0973 51.0937 35.7763 51.142 35.4638 51.1875C35.1513 51.2273 34.8899 51.2614 34.6797 51.2898C34.1854 51.3523 33.7337 51.4574 33.3246 51.6051C32.9212 51.7528 32.5973 51.9659 32.353 52.2443C32.1143 52.517 31.995 52.8807 31.995 53.3352C31.995 53.9659 32.228 54.4432 32.6939 54.767C33.1598 55.0852 33.7536 55.2443 34.4751 55.2443ZM43.7756 61.9091V43.9091H46.2642V46.0312H46.4773C46.625 45.7585 46.8381 45.4432 47.1165 45.0852C47.3949 44.7273 47.7813 44.4148 48.2756 44.1477C48.7699 43.875 49.4233 43.7386 50.2358 43.7386C51.2926 43.7386 52.2358 44.0057 53.0653 44.5398C53.8949 45.0739 54.5455 45.8437 55.017 46.8494C55.4943 47.8551 55.733 49.0653 55.733 50.4801C55.733 51.8949 55.4972 53.108 55.0256 54.1193C54.554 55.125 53.9063 55.9006 53.0824 56.446C52.2585 56.9858 51.3182 57.2557 50.2614 57.2557C49.4659 57.2557 48.8153 57.1222 48.3097 56.8551C47.8097 56.5881 47.4176 56.2756 47.1335 55.9176C46.8494 55.5597 46.6307 55.2415 46.4773 54.9631H46.3239V61.9091H43.7756ZM46.2727 50.4545C46.2727 51.375 46.4063 52.1818 46.6733 52.875C46.9403 53.5682 47.3267 54.1108 47.8324 54.5028C48.3381 54.8892 48.9574 55.0824 49.6903 55.0824C50.4517 55.0824 51.0881 54.8807 51.5994 54.4773C52.1108 54.0682 52.4972 53.5142 52.7585 52.8153C53.0256 52.1165 53.1591 51.3295 53.1591 50.4545C53.1591 49.5909 53.0284 48.8153 52.767 48.1278C52.5114 47.4403 52.125 46.8977 51.608 46.5C51.0966 46.1023 50.4574 45.9034 49.6903 45.9034C48.9517 45.9034 48.3267 46.0937 47.8153 46.4744C47.3097 46.8551 46.9261 47.3864 46.6648 48.0682C46.4034 48.75 46.2727 49.5455 46.2727 50.4545ZM61.0852 53.429L66.8551 43.9091H69.5994V57H67.1023V47.4716L61.358 57H58.5881V43.9091H61.0852V53.429ZM78.6591 61.4574V39.5455H81.2074V61.4574H78.6591ZM78.6591 57.2642C77.733 57.2642 76.8892 57.1051 76.1278 56.7869C75.3665 56.4631 74.7102 56.0028 74.1591 55.4062C73.608 54.8097 73.1818 54.0966 72.8807 53.267C72.5852 52.4375 72.4375 51.5199 72.4375 50.5142C72.4375 49.4972 72.5852 48.5739 72.8807 47.7443C73.1818 46.9148 73.608 46.2017 74.1591 45.6051C74.7102 45.0085 75.3665 44.5483 76.1278 44.2244C76.8892 43.9006 77.733 43.7386 78.6591 43.7386H79.2898V57.2642H78.6591ZM78.6591 55.1165H79.017V45.8864H78.6591C78.0455 45.8864 77.5114 46.0114 77.0568 46.2614C76.6023 46.5057 76.2244 46.8437 75.9233 47.2756C75.6222 47.7017 75.3949 48.1932 75.2415 48.75C75.0938 49.3068 75.0199 49.8949 75.0199 50.5142C75.0199 51.3437 75.1534 52.108 75.4205 52.8068C75.6875 53.5 76.0909 54.0597 76.6307 54.4858C77.1705 54.9062 77.8466 55.1165 78.6591 55.1165ZM81.2074 57.2642H80.5682V43.7386H81.2074C82.1335 43.7386 82.9773 43.9006 83.7386 44.2244C84.5 44.5483 85.1534 45.0085 85.6989 45.6051C86.25 46.2017 86.6733 46.9148 86.9688 47.7443C87.2699 48.5739 87.4205 49.4972 87.4205 50.5142C87.4205 51.5199 87.2699 52.4375 86.9688 53.267C86.6733 54.0966 86.25 54.8097 85.6989 55.4062C85.1534 56.0028 84.5 56.4631 83.7386 56.7869C82.9773 57.1051 82.1335 57.2642 81.2074 57.2642ZM81.2074 55.1165C81.821 55.1165 82.3551 54.9972 82.8097 54.7585C83.2642 54.5142 83.642 54.179 83.9432 53.7528C84.2443 53.321 84.4688 52.8295 84.6165 52.2784C84.7642 51.7216 84.8381 51.1335 84.8381 50.5142C84.8381 49.6903 84.7045 48.929 84.4375 48.2301C84.1761 47.5256 83.7756 46.9602 83.2358 46.5341C82.696 46.1023 82.0199 45.8864 81.2074 45.8864H80.8409V55.1165H81.2074ZM92.1697 48.4091H95.9709C97.5732 48.4091 98.8061 48.8068 99.6697 49.6023C100.533 50.3977 100.965 51.4233 100.965 52.679C100.965 53.4972 100.772 54.233 100.386 54.8864C99.9993 55.5398 99.4339 56.0568 98.6896 56.4375C97.9453 56.8125 97.0391 57 95.9709 57H90.2521V43.9091H92.7493V54.8011H95.9709C96.7038 54.8011 97.3061 54.6108 97.7777 54.2301C98.2493 53.8438 98.4851 53.3523 98.4851 52.7557C98.4851 52.125 98.2493 51.6108 97.7777 51.2131C97.3061 50.8097 96.7038 50.608 95.9709 50.608H92.1697V48.4091ZM102.823 57V43.9091H105.371V57H102.823Z" fill="white"/>
<defs>
<filter id="filter0_f_3879_12697" x="-156.863" y="34.9297" width="1142.86" height="167.07" filterUnits="userSpaceOnUse" color-interpolation-filters="sRGB">
<feFlood flood-opacity="0" result="BackgroundImageFix"/>
<feBlend mode="normal" in="SourceGraphic" in2="BackgroundImageFix" result="shape"/>
<feGaussianBlur stdDeviation="20" result="effect1_foregroundBlur_3879_12697"/>
</filter>
<filter id="filter1_f_3879_12697" x="-391.32" y="34.9297" width="1142.86" height="167.07" filterUnits="userSpaceOnUse" color-interpolation-filters="sRGB">
<feFlood flood-opacity="0" result="BackgroundImageFix"/>
<feBlend mode="normal" in="SourceGraphic" in2="BackgroundImageFix" result="shape"/>
<feGaussianBlur stdDeviation="20" result="effect1_foregroundBlur_3879_12697"/>
</filter>
<filter id="filter2_f_3879_12697" x="-489.672" y="34.9297" width="1142.86" height="167.07" filterUnits="userSpaceOnUse" color-interpolation-filters="sRGB">
<feFlood flood-opacity="0" result="BackgroundImageFix"/>
<feBlend mode="normal" in="SourceGraphic" in2="BackgroundImageFix" result="shape"/>
<feGaussianBlur stdDeviation="20" result="effect1_foregroundBlur_3879_12697"/>
</filter>
<filter id="filter3_f_3879_12697" x="-402.484" y="14.9297" width="1182.86" height="207.07" filterUnits="userSpaceOnUse" color-interpolation-filters="sRGB">
<feFlood flood-opacity="0" result="BackgroundImageFix"/>
<feBlend mode="normal" in="SourceGraphic" in2="BackgroundImageFix" result="shape"/>
<feGaussianBlur stdDeviation="30" result="effect1_foregroundBlur_3879_12697"/>
</filter>
<filter id="filter4_f_3879_12697" x="-550" y="46" width="1102.86" height="127.07" filterUnits="userSpaceOnUse" color-interpolation-filters="sRGB">
<feFlood flood-opacity="0" result="BackgroundImageFix"/>
<feBlend mode="normal" in="SourceGraphic" in2="BackgroundImageFix" result="shape"/>
<feGaussianBlur stdDeviation="10" result="effect1_foregroundBlur_3879_12697"/>
</filter>
<filter id="filter5_f_3879_12697" x="-275.469" y="65.9297" width="732.531" height="33.627" filterUnits="userSpaceOnUse" color-interpolation-filters="sRGB">
<feFlood flood-opacity="0" result="BackgroundImageFix"/>
<feBlend mode="normal" in="SourceGraphic" in2="BackgroundImageFix" result="shape"/>
<feGaussianBlur stdDeviation="4.5" result="effect1_foregroundBlur_3879_12697"/>
</filter>
<filter id="filter6_f_3879_12697" x="-149.66" y="80.0938" width="726.531" height="27.627" filterUnits="userSpaceOnUse" color-interpolation-filters="sRGB">
<feFlood flood-opacity="0" result="BackgroundImageFix"/>
<feBlend mode="normal" in="SourceGraphic" in2="BackgroundImageFix" result="shape"/>
<feGaussianBlur stdDeviation="3" result="effect1_foregroundBlur_3879_12697"/>
</filter>
</defs>
</svg>
