<svg width="32" height="32" viewBox="0 0 32 32" fill="none" xmlns="http://www.w3.org/2000/svg">
<circle cx="16" cy="16" r="16" fill="#FF3A62"/>
<path fill-rule="evenodd" clip-rule="evenodd" d="M24 20.5V22.5H9V20.5H24ZM8 20.5V22.5H6V20.5H8ZM25 20.5L27 21.5L25 22.5V20.5Z" fill="white"/>
<path fill-rule="evenodd" clip-rule="evenodd" d="M18.418 18.5L19.751 20.5H18.501L17.168 18.5H18.418ZM15.5 17.5L17.5 20.5H16.25L14.25 17.5H15.5ZM19.4587 8.5C19.9668 8.5 20.2285 8.93183 20.3316 9.22418L20.448 9.23896L20.5606 9.26192C20.8461 9.33004 21.3106 9.51723 21.4257 10.0219C20.7581 10.0219 20.0059 10.7188 20.6572 11.6694C21.1976 12.2989 21.5218 13.1084 21.5218 13.9811C21.5218 15.967 19.8419 17.4401 17.75 17.4982L6.5 17.5C5.67157 17.5 5 16.8284 5 16H14.2108C16.4633 16 18.288 14.5658 18.288 12.4442C18.288 11.7152 17.9829 10.998 17.727 10.5245L17.644 10.3761L17.5676 10.2476L17.4716 10.0965L17.383 9.96776C16.8194 8.98633 17.7062 8.5 18.1643 8.5H19.4587ZM16.2986 9.89062C16.342 9.99899 16.3947 10.1073 16.4565 10.215L16.5001 10.2842L16.5887 10.4129L16.6642 10.5331L16.7253 10.6367L16.7949 10.7618C17.0606 11.2537 17.2872 12.0162 17.2872 12.4442C17.2872 13.9186 15.8448 15.0881 14.0467 15.0881L11.3359 15.0879L16.2986 9.89062ZM18.9 9.25C18.6791 9.25 18.5 9.42909 18.5 9.65C18.5 9.87091 18.6791 10.05 18.9 10.05C19.1209 10.05 19.3 9.87091 19.3 9.65C19.3 9.42909 19.1209 9.25 18.9 9.25Z" fill="white"/>
</svg>
