<svg width="64" height="64" viewBox="0 0 64 64" fill="none" xmlns="http://www.w3.org/2000/svg">
<path fill-rule="evenodd" clip-rule="evenodd" d="M54.0545 49.4548C53.2567 49.4599 52.4756 49.2297 51.8099 48.7932C51.1443 48.3568 50.6241 47.7338 50.3154 47.0034C50.0066 46.273 49.9233 45.4679 50.0759 44.6903C50.2287 43.9129 50.6103 43.1979 51.1727 42.6361C51.735 42.0742 52.4527 41.691 53.2347 41.5348C54.0166 41.3787 54.8278 41.4567 55.5651 41.759C56.3024 42.0613 56.9326 42.5743 57.376 43.2328C57.8192 43.8914 58.0556 44.6659 58.0552 45.4581C58.0569 45.9813 57.9548 46.4997 57.7549 46.9838C57.5548 47.4678 57.2607 47.908 56.8894 48.2792C56.5179 48.6503 56.0767 48.9451 55.5904 49.1469C55.1043 49.3486 54.5814 49.4533 54.0545 49.4548ZM44.6805 49.4548C43.8827 49.4601 43.1015 49.23 42.4357 48.7937C41.7698 48.3573 41.2496 47.7345 40.9408 47.0039C40.632 46.2735 40.5484 45.4685 40.701 44.6909C40.8536 43.9134 41.2352 43.1982 41.7975 42.6364C42.3598 42.0744 43.0776 41.6911 43.8595 41.5348C44.6415 41.3787 45.4526 41.4567 46.19 41.759C46.9273 42.0612 47.5577 42.5741 48.001 43.2328C48.4444 43.8912 48.6808 44.6659 48.6804 45.4581C48.682 45.9813 48.5799 46.4998 48.3796 46.9838C48.1796 47.468 47.8853 47.9081 47.514 48.2793C47.1425 48.6505 46.7011 48.9453 46.2148 49.1469C45.7288 49.3486 45.2072 49.4533 44.6805 49.4548ZM35.2997 49.4548C34.5019 49.4601 33.7207 49.23 33.0549 48.7937C32.3892 48.3573 31.8688 47.7345 31.56 47.0039C31.2512 46.2735 31.1678 45.4685 31.3203 44.6909C31.4728 43.9134 31.8544 43.1982 32.4168 42.6364C32.9791 42.0744 33.6968 41.6911 34.4788 41.5348C35.2607 41.3787 36.0719 41.4567 36.8092 41.759C37.5466 42.0612 38.1769 42.5741 38.6202 43.2328C39.0636 43.8912 39.3 44.6659 39.2996 45.4581C39.3012 45.9813 39.1991 46.4998 38.999 46.9838C38.7988 47.468 38.5047 47.9081 38.1332 48.2793C37.7617 48.6505 37.3203 48.9453 36.8342 49.1469C36.348 49.3486 35.8266 49.4533 35.2997 49.4548ZM35.9502 0.241976V33.2567H35.9451C35.9421 33.943 35.6658 34.6003 35.1765 35.085C34.6873 35.5698 34.0249 35.8429 33.3338 35.8444H29.3944C29.3001 35.845 29.2097 35.8829 29.1434 35.9495C29.077 36.0161 29.0402 36.1063 29.0405 36.2V63.8632C30.0155 63.9466 30.9997 64 31.9973 64C49.6729 64 64 49.6726 64 31.9987C64 15.6659 51.7591 2.191 35.9502 0.241976ZM23.6197 25.7262C24.2856 26.1624 25.0668 26.3923 25.8646 26.3869C26.3915 26.3852 26.9129 26.2803 27.3991 26.0785C27.8852 25.8766 28.3265 25.5816 28.6978 25.2103C29.0693 24.839 29.3634 24.3986 29.5633 23.9145C29.7633 23.4304 29.8654 22.9118 29.8635 22.3885C29.8637 21.5962 29.6271 20.8219 29.1834 20.1636C28.7397 19.5053 28.1093 18.9925 27.3719 18.6905C26.6345 18.3885 25.8234 18.3108 25.0415 18.4672C24.2595 18.6237 23.542 19.0073 22.9799 19.5694C22.4177 20.1314 22.0364 20.8465 21.8841 21.6241C21.7317 22.4017 21.8155 23.2068 22.1244 23.9371C22.4335 24.6673 22.954 25.2902 23.6197 25.7262ZM0 31.9996C0 14.3275 14.3271 0 32.0002 0L32.1035 0.0100099V31.6691C32.0975 31.759 32.0576 31.8433 31.9918 31.9053C31.9258 31.9673 31.8387 32.0021 31.748 32.0031H27.7136C27.0452 32.03 26.4124 32.3097 25.945 32.7852C25.4776 33.2606 25.2109 33.8954 25.1996 34.5598V63.2747C10.7928 60.1561 0 47.338 0 31.9996Z" fill="#02B956"/>
</svg>
