<svg width="222" height="64" viewBox="0 0 222 64" fill="none" xmlns="http://www.w3.org/2000/svg">
<path fill-rule="evenodd" clip-rule="evenodd" d="M0 0H64V64H0V0ZM19.4787 4.92188L14.766 14.6875L10.0665 4.92188H4.92188V19.6881H8.53488V9.12397L13.1297 18.0518H16.4154L21.0102 9.12397V19.6881H24.6102V4.92188H19.4787ZM42.6356 4.92188V7.86727H49.0762V19.6881H52.6762V7.86727H59.1037V4.92188H42.6356ZM55.5034 54.1556C55.4118 54.7447 55.1761 55.2291 54.7965 55.5956C54.4431 55.936 53.9587 56.1847 53.3565 56.3287C52.7674 56.4596 51.8905 56.5381 50.9741 56.5381C50.0185 56.5381 49.1807 56.4203 48.4607 56.1716C47.7668 55.936 47.217 55.5171 46.8374 54.9411C46.4447 54.3651 46.2483 53.5274 46.2483 52.4408V50.9354C46.2483 49.8619 46.4447 49.0241 46.8374 48.435C47.2301 47.859 47.7668 47.4403 48.4607 47.2046C49.1676 46.9559 50.0185 46.8381 50.9741 46.8381C51.8905 46.8381 52.7674 46.9166 53.3565 47.0475C53.9587 47.1915 54.4431 47.427 54.7965 47.7805C55.1761 48.147 55.4118 48.6314 55.5034 49.2205H59.1033C58.9985 48.003 58.5929 46.969 57.8729 46.1312C57.2183 45.3719 56.302 44.8221 55.1631 44.4817C54.0634 44.1544 52.6103 43.9843 50.9741 43.9843C49.2461 43.9843 47.7537 44.233 46.5232 44.7173C45.2797 45.2148 44.311 46.0395 43.6433 47.1784C43.0019 48.2648 42.6746 49.731 42.6484 51.5114V51.6816L42.8448 51.6947L42.6484 51.7077V51.8779C42.6746 53.6583 43.0019 55.1243 43.6433 56.2109C44.311 57.3498 45.2797 58.1745 46.5232 58.672C47.7537 59.1563 49.2461 59.4051 50.9741 59.4051C52.6103 59.4051 54.0634 59.2349 55.1631 58.9076C56.302 58.5672 57.2052 58.0174 57.8729 57.2581C58.5929 56.4334 59.0116 55.3861 59.1033 54.1687H55.5034V54.1556Z" fill="#FF0032"/>
</svg>
