<svg width="24" height="24" viewBox="0 0 24 24" fill="none" xmlns="http://www.w3.org/2000/svg">
<path fill-rule="evenodd" clip-rule="evenodd" d="M11.9811 4.14353C11.3839 4.13275 10.7904 4.23983 10.2347 4.45866C9.67897 4.67748 9.17184 5.00375 8.74234 5.41879C8.31284 5.83383 7.9694 6.32949 7.73167 6.87741C7.49395 7.42533 7.36661 8.01475 7.35694 8.61194V14.8574C7.35694 15.2363 7.20644 15.5996 6.93854 15.8675C6.67064 16.1354 6.30729 16.2859 5.92842 16.2859H4.14278C3.57448 16.2859 3.02945 16.0602 2.6276 15.6583C2.22576 15.2565 2 14.7115 2 14.1432V11.2861C2 10.7178 2.22576 10.1728 2.6276 9.77095C3.02945 9.3691 3.57448 9.14334 4.14278 9.14334H5.21416V8.58622C5.2272 7.70825 5.41306 6.84144 5.76113 6.0353C6.10921 5.22916 6.61267 4.49949 7.24278 3.88795C7.87289 3.27642 8.61729 2.795 9.43348 2.47119C10.2497 2.14738 11.1216 1.98753 11.9996 2.00076C12.8776 1.98753 13.7496 2.14738 14.5658 2.47119C15.3819 2.795 16.1264 3.27642 16.7565 3.88795C17.3866 4.49949 17.89 5.22916 18.2381 6.0353C18.5862 6.84144 18.772 7.70825 18.7851 8.58622V9.14334H19.8565C20.4248 9.14334 20.9698 9.3691 21.3716 9.77095C21.7735 10.1728 21.9992 10.7178 21.9992 11.2861V14.1432C21.9992 14.7115 21.7735 15.2565 21.3716 15.6583C20.9698 16.0602 20.4248 16.2859 19.8565 16.2859H18.7851V17.0002C18.7853 17.9655 18.43 18.8971 17.7871 19.6172C17.1442 20.3373 16.2587 20.7955 15.2995 20.9043C15.1132 21.2369 14.8416 21.5138 14.5127 21.7064C14.1837 21.899 13.8093 22.0003 13.4281 22H11.2854C10.7171 22 10.172 21.7742 9.77019 21.3724C9.36834 20.9705 9.14259 20.4255 9.14259 19.8572C9.14259 19.2889 9.36834 18.7439 9.77019 18.3421C10.172 17.9402 10.7171 17.7144 11.2854 17.7144H13.4281C14.2024 17.7144 14.8809 18.1244 15.2566 18.7401C15.6504 18.6496 16.0018 18.4283 16.2535 18.1123C16.5052 17.7962 16.6422 17.4042 16.6423 17.0002V8.61051C16.6325 8.01024 16.5038 7.41788 16.2637 6.86765C16.0236 6.31742 15.6768 5.82025 15.2433 5.40487C14.8099 4.98949 14.2984 4.66415 13.7384 4.44765C13.1785 4.23115 12.5812 4.12779 11.9811 4.14353Z" fill="#5171E0"/>
</svg>
