<svg width="22" height="18" viewBox="0 0 22 18" fill="none" xmlns="http://www.w3.org/2000/svg">
<path d="M1.46656 7.46189C7.19317 5.01575 11.0118 3.40311 12.9225 2.62397C18.3778 0.399338 19.5114 0.0128966 20.2502 0.000136055C20.4127 -0.00267048 20.7761 0.0368138 21.0114 0.224051C21.2102 0.38215 21.2648 0.59572 21.291 0.745616C21.3172 0.895511 21.3498 1.23698 21.3239 1.50379C21.0282 4.54913 19.7491 11.9394 19.0983 15.3502C18.8229 16.7935 18.2807 17.2774 17.7558 17.3247C16.615 17.4277 15.7488 16.5856 14.6439 15.8755C12.915 14.7644 11.9383 14.0727 10.26 12.9884C8.32057 11.7354 9.57785 11.0467 10.6831 9.92116C10.9724 9.6266 15.9986 5.1444 16.0959 4.73779C16.1081 4.68694 16.1194 4.49738 16.0045 4.39729C15.8896 4.2972 15.7201 4.33143 15.5978 4.35865C15.4244 4.39723 12.6624 6.18705 7.31186 9.72809C6.52788 10.2559 5.81777 10.513 5.18155 10.4996C4.48016 10.4847 3.13096 10.1108 2.12797 9.79112C0.897771 9.39906 -0.0799712 9.19177 0.0051682 8.52593C0.049514 8.17912 0.536643 7.82444 1.46656 7.46189Z" fill="white"/>
</svg>
