<svg width="16" height="20" viewBox="0 0 16 20" fill="none" xmlns="http://www.w3.org/2000/svg">
<path d="M6 8.10334C6 9.22217 6.89542 10.1292 8 10.1292C9.10458 10.1292 10 9.22217 10 8.10334C10 6.9845 9.10458 6.0775 8 6.0775C6.89542 6.0775 6 6.9845 6 8.10334Z" fill="#0D214B"/>
<path fill-rule="evenodd" clip-rule="evenodd" d="M6.44809 18.9428C6.82565 19.286 7.15592 19.57 7.41362 19.7852C7.75654 20.0716 8.24346 20.0716 8.58638 19.7852C8.84408 19.57 9.17435 19.286 9.55191 18.9428C11.8784 16.8279 16 12.4656 16 8.10334C16 3.62799 12.4183 0 8 0C3.58173 0 0 3.62799 0 8.10334C0 12.4656 4.12164 16.8279 6.44809 18.9428ZM8 2.02583C4.68628 2.02583 2 4.74682 2 8.10334C2 10.3418 3.54095 12.8875 5.49481 15.114C6.34528 16.0831 7.32001 17.1132 8 17.726C8.67999 17.1132 9.65472 16.0831 10.5052 15.114C12.459 12.8875 14 10.3418 14 8.10334C14 4.74682 11.3137 2.02583 8 2.02583Z" fill="#0D214B"/>
</svg>
