<svg width="20" height="18" viewBox="0 0 20 18" fill="none" xmlns="http://www.w3.org/2000/svg">
<path fill-rule="evenodd" clip-rule="evenodd" d="M10 1.70401C8.93832 0.648623 7.49678 0 5.90909 0C2.6456 0 0 2.74038 0 6.12081C0 8.49737 1.17842 9.7105 3.17039 11.7608L3.17175 11.7622C3.32202 11.917 3.47693 12.0765 3.63636 12.2416L9.37354 17.7474C9.7245 18.0842 10.2755 18.0842 10.6265 17.7474L16.3636 12.2416C16.5228 12.0768 16.6774 11.9176 16.8274 11.7631L16.8296 11.7608C18.8216 9.7105 20 8.49737 20 6.12081C20 2.74038 17.3544 0 14.0909 0C12.5032 0 11.0617 0.648623 10 1.70401ZM15.4015 10.3478C17.473 8.21565 18 7.56064 18 6.12081C18 3.80515 16.201 2.01834 14.0909 2.01834C13.0565 2.01834 12.1115 2.43809 11.4035 3.14191L10.7018 3.83951C10.3125 4.22647 9.68751 4.22648 9.29824 3.83951L8.59648 3.14191C7.88847 2.43809 6.94347 2.01834 5.90909 2.01834C3.799 2.01834 2 3.80515 2 6.12081C2 7.56064 2.52704 8.21565 4.5985 10.3478L4.60012 10.3495C4.74177 10.4953 4.88985 10.6478 5.04212 10.8054L10 15.5633L14.9579 10.8054C15.11 10.648 15.2576 10.496 15.3991 10.3503L15.4015 10.3478Z" fill="#0D214B"/>
</svg>
